<svg width="146" height="137" viewBox="0 0 146 137" fill="none" xmlns="http://www.w3.org/2000/svg">
<path d="M24.4368 99.4078C25.3839 100.359 26.1097 101.507 26.5623 102.77C27.015 104.033 27.1834 105.381 27.0556 106.717C26.4143 112.9 25.1985 119.009 23.4239 124.967C36.1532 122.02 43.9278 118.607 47.4591 116.818C49.4621 115.804 51.7688 115.563 53.9379 116.143C60.156 117.801 66.5647 118.635 73 118.625C109.464 118.625 136.875 93.0111 136.875 63.875C136.875 34.748 109.464 9.125 73 9.125C36.5365 9.125 9.125 34.748 9.125 63.875C9.125 77.2705 14.7551 89.6988 24.4368 99.4078ZM19.9381 135.041C17.7761 135.469 15.6071 135.862 13.432 136.218C11.607 136.51 10.22 134.612 10.9409 132.915C11.7511 131.004 12.4937 129.065 13.1674 127.102L13.1947 127.011C15.4577 120.441 17.301 112.885 17.9762 105.85C6.77988 94.6263 0 79.935 0 63.875C0 28.5977 32.6857 0 73 0C113.314 0 146 28.5977 146 63.875C146 99.1523 113.314 127.75 73 127.75C65.7698 127.76 58.5696 126.821 51.5836 124.958C46.8386 127.358 36.6278 131.729 19.9381 135.041Z" fill="url(#paint0_linear)"/>
<path d="M141.008 25.5C141.008 28.8174 139.691 31.999 137.345 34.3448C134.999 36.6905 131.817 38.0084 128.5 38.0084C125.183 38.0084 122.001 36.6905 119.655 34.3448C117.31 31.999 115.992 28.8174 115.992 25.5C115.992 22.1826 117.31 19.0011 119.655 16.6553C122.001 14.3095 125.183 12.9917 128.5 12.9917C131.817 12.9917 134.999 14.3095 137.345 16.6553C139.691 19.0011 141.008 22.1826 141.008 25.5Z" fill="#FFD400"/>
<path d="M33.888 59.176C33.272 60.7813 32.6747 62.928 32.096 65.616H31.48C31.6293 64.7573 31.704 64.02 31.704 63.404C31.704 62.5453 31.5453 61.836 31.228 61.276C30.5747 60.0627 29.4733 59.456 27.924 59.456C26.4307 59.456 25.0027 60.1187 23.64 61.444C22.296 62.7507 21.2133 64.4587 20.392 66.568C19.5893 68.6587 19.188 70.8053 19.188 73.008C19.188 74.856 19.5147 76.2467 20.168 77.18C20.84 78.0947 21.7733 78.552 22.968 78.552C23.6773 78.552 24.4147 78.3933 25.18 78.076C25.9453 77.74 26.608 77.2827 27.168 76.704C27.6533 76.1813 28.0733 75.6027 28.428 74.968C28.8013 74.3147 29.2213 73.4187 29.688 72.28H30.304C29.4267 75.5093 28.876 77.7493 28.652 79H28.036C28.092 78.608 28.12 78.2907 28.12 78.048C28.12 77.5627 27.9987 77.32 27.756 77.32C27.6067 77.32 27.42 77.404 27.196 77.572C26.3373 78.1507 25.4787 78.5987 24.62 78.916C23.7613 79.2333 22.7907 79.392 21.708 79.392C19.2067 79.392 17.3307 78.7947 16.08 77.6C14.8293 76.4053 14.204 74.688 14.204 72.448C14.204 70.2453 14.7827 68.0893 15.94 65.98C17.116 63.852 18.7307 62.1253 20.784 60.8C22.8373 59.456 25.1053 58.784 27.588 58.784C28.6333 58.784 29.4547 58.9427 30.052 59.26C30.668 59.5773 31.2373 60.0253 31.76 60.604C31.9093 60.772 32.0493 60.856 32.18 60.856C32.516 60.856 32.8893 60.296 33.3 59.176H33.888ZM44.0901 64.132C44.7994 64.132 45.3501 64.3467 45.7421 64.776C46.1527 65.1867 46.3581 65.728 46.3581 66.4C46.3581 67.2027 46.0967 67.8933 45.5741 68.472C45.0701 69.032 44.4447 69.312 43.6981 69.312C43.1567 69.312 42.7367 69.172 42.4381 68.892C42.1394 68.5933 41.9901 68.1733 41.9901 67.632C41.9901 66.9787 42.2141 66.3907 42.6621 65.868C43.1101 65.3267 43.6607 64.9813 44.3141 64.832C44.2767 64.832 44.2207 64.8227 44.1461 64.804C44.0714 64.7667 44.0061 64.748 43.9501 64.748C42.9981 64.748 42.0274 65.4387 41.0381 66.82C40.0487 68.2013 39.0407 70.6653 38.0141 74.212L36.7821 79H32.8341L36.2501 66.904C36.3434 66.6053 36.3901 66.316 36.3901 66.036C36.3901 65.6813 36.2407 65.504 35.9421 65.504C35.5874 65.504 35.2701 65.672 34.9901 66.008C34.7101 66.344 34.4207 66.9133 34.1221 67.716L33.5901 69.144H33.0581L33.8141 67.016C34.5047 65.0933 35.7927 64.132 37.6781 64.132C39.1154 64.132 39.8341 64.888 39.8341 66.4C39.8341 66.9413 39.7594 67.492 39.6101 68.052L39.3861 68.948C40.0767 67.1747 40.7767 65.9333 41.4861 65.224C42.2141 64.496 43.0821 64.132 44.0901 64.132ZM56.8224 64.132C58.0544 64.132 58.6704 64.9813 58.6704 66.68C58.6704 68.36 58.1291 70.3667 57.0464 72.7C55.9637 75.0147 54.6664 77.0773 53.1544 78.888C52.2024 80.0267 51.1477 81.0347 49.9904 81.912C48.8517 82.7893 47.6757 83.4333 46.4624 83.844C45.7157 84.124 45.0531 84.264 44.4744 84.264C43.8771 84.264 43.4104 84.124 43.0744 83.844C42.7197 83.564 42.5424 83.1813 42.5424 82.696C42.5424 82.192 42.7291 81.772 43.1024 81.436C43.4571 81.1187 43.9144 80.96 44.4744 80.96C45.5757 80.96 46.5744 81.604 47.4704 82.892C48.8144 82.2387 50.0277 81.38 51.1104 80.316L48.9264 66.932C48.8331 66.4093 48.7304 66.064 48.6184 65.896C48.5251 65.7093 48.3851 65.616 48.1984 65.616C47.9931 65.616 47.7971 65.756 47.6104 66.036C47.4237 66.316 47.1811 66.8667 46.8824 67.688L46.3784 69.06H45.8464L46.5464 67.016C46.9197 65.952 47.3864 65.2053 47.9464 64.776C48.5251 64.3467 49.2064 64.132 49.9904 64.132C50.7931 64.132 51.4184 64.356 51.8664 64.804C52.3144 65.252 52.6224 66.036 52.7904 67.156L54.0784 76.76C54.8997 75.584 55.6091 74.3893 56.2064 73.176C56.8037 71.944 57.2424 70.768 57.5224 69.648C56.7571 69.2373 56.1317 68.7147 55.6464 68.08C55.1611 67.4453 54.9277 66.764 54.9464 66.036C54.9464 65.4573 55.1144 65 55.4504 64.664C55.7864 64.3093 56.2437 64.132 56.8224 64.132ZM71.0862 64.132C72.2249 64.132 73.0836 64.5053 73.6622 65.252C74.2596 65.98 74.5582 67.044 74.5582 68.444C74.5582 69.9747 74.2129 71.5987 73.5222 73.316C72.8502 75.0147 71.8796 76.452 70.6102 77.628C69.3409 78.804 67.8662 79.392 66.1862 79.392C65.6636 79.392 65.1782 79.308 64.7302 79.14C64.2822 78.972 63.9276 78.7293 63.6662 78.412L62.9102 81.1C62.7982 81.492 62.7422 81.828 62.7422 82.108C62.7422 82.6307 62.9289 82.9853 63.3022 83.172C63.6756 83.3587 64.2636 83.4613 65.0662 83.48L64.8982 84.068L64.2542 84.04C62.3502 83.984 61.0902 83.956 60.4742 83.956C59.8582 83.956 58.5422 83.9933 56.5262 84.068L56.6942 83.48C57.3662 83.48 57.8516 83.3587 58.1502 83.116C58.4489 82.8733 58.6916 82.416 58.8782 81.744L63.9462 63.572C63.4236 64.7293 62.8262 65.7747 62.1542 66.708C61.4822 67.6227 60.6609 68.5747 59.6902 69.564L59.3822 69.2C60.2036 68.304 60.8849 67.5293 61.4262 66.876C61.9676 66.204 62.5089 65.392 63.0502 64.44C63.6102 63.4693 64.1609 62.2933 64.7022 60.912L64.7862 60.576C66.2982 60.464 67.6889 60.2027 68.9582 59.792L66.5502 68.332C67.2222 66.876 67.9316 65.812 68.6782 65.14C69.4249 64.468 70.2276 64.132 71.0862 64.132ZM65.0942 78.58C65.9716 78.58 66.8209 78.02 67.6422 76.9C68.4822 75.7613 69.1636 74.3613 69.6862 72.7C70.2089 71.02 70.4702 69.4333 70.4702 67.94C70.4702 67.0627 70.3862 66.456 70.2182 66.12C70.0689 65.784 69.8449 65.616 69.5462 65.616C68.9862 65.616 68.3516 66.1573 67.6422 67.24C66.9329 68.3227 66.2796 69.6947 65.6822 71.356L63.8062 77.936C64.1609 78.3653 64.5902 78.58 65.0942 78.58ZM79.9904 76.62C79.9344 76.8067 79.9064 76.9933 79.9064 77.18C79.9064 77.46 79.9811 77.6747 80.1304 77.824C80.2798 77.9547 80.4851 78.02 80.7464 78.02C81.1571 78.02 81.5491 77.824 81.9224 77.432C82.3144 77.0213 82.6598 76.4147 82.9584 75.612L83.3784 74.464H83.9104L83.3504 76.088C82.6224 78.2907 81.2224 79.392 79.1504 79.392C78.1984 79.392 77.4798 79.1493 76.9944 78.664C76.5278 78.16 76.2944 77.4787 76.2944 76.62C76.2944 76.0787 76.3784 75.5187 76.5464 74.94L79.3744 65.084H76.8544L76.9944 64.524H79.5424L80.7464 60.352C82.3331 60.3333 83.6864 60.2027 84.8064 59.96L83.4904 64.524H86.6544L86.5704 65.084H83.3224L79.9904 76.62ZM85.6055 74.772C85.6055 73.2413 85.9509 71.6453 86.6415 69.984C87.3509 68.3227 88.3869 66.932 89.7495 65.812C91.1309 64.692 92.7735 64.132 94.6775 64.132C96.1335 64.132 97.2535 64.5333 98.0375 65.336C98.8215 66.12 99.2135 67.2587 99.2135 68.752C99.2135 70.2827 98.8589 71.8787 98.1495 73.54C97.4589 75.2013 96.4229 76.592 95.0415 77.712C93.6789 78.832 92.0455 79.392 90.1415 79.392C88.6855 79.392 87.5655 79 86.7815 78.216C85.9975 77.4133 85.6055 76.2653 85.6055 74.772ZM94.5375 64.692C93.8469 64.692 93.0909 65.3547 92.2695 66.68C91.4482 68.0053 90.7575 69.6293 90.1975 71.552C89.6375 73.4747 89.3575 75.2667 89.3575 76.928C89.3575 77.6 89.4322 78.0853 89.5815 78.384C89.7309 78.6827 89.9735 78.832 90.3095 78.832C91.0002 78.832 91.7469 78.188 92.5495 76.9C93.3709 75.612 94.0615 74.016 94.6215 72.112C95.1815 70.1893 95.4615 68.3693 95.4615 66.652C95.4615 65.924 95.3869 65.42 95.2375 65.14C95.0882 64.8413 94.8549 64.692 94.5375 64.692ZM115.742 74.464L115.042 76.508C114.37 78.4307 113.119 79.392 111.29 79.392C110.245 79.392 109.498 79.084 109.05 78.468C108.807 78.1133 108.686 77.6747 108.686 77.152C108.686 76.5547 108.835 75.8173 109.134 74.94L111.654 67.38C111.822 66.876 111.906 66.4747 111.906 66.176C111.906 65.7467 111.729 65.532 111.374 65.532C110.814 65.532 110.133 66.1013 109.33 67.24C108.546 68.3787 107.753 69.8813 106.95 71.748C106.147 73.596 105.447 75.5467 104.85 77.6L104.486 79H100.538L103.926 66.904C104.038 66.568 104.094 66.2693 104.094 66.008C104.094 65.672 103.935 65.504 103.618 65.504C103.263 65.504 102.946 65.672 102.666 66.008C102.405 66.3253 102.125 66.8947 101.826 67.716L101.294 69.144H100.762L101.518 67.016C101.873 65.9893 102.349 65.252 102.946 64.804C103.543 64.356 104.271 64.132 105.13 64.132C106.735 64.132 107.538 64.8973 107.538 66.428C107.538 66.9507 107.463 67.492 107.314 68.052L106.446 71.44C107.211 69.536 107.939 68.0613 108.63 67.016C109.339 65.952 110.049 65.2053 110.758 64.776C111.486 64.3467 112.289 64.132 113.166 64.132C114.846 64.132 115.686 64.8787 115.686 66.372C115.686 66.932 115.565 67.5947 115.322 68.36L112.578 76.62C112.466 76.956 112.41 77.2267 112.41 77.432C112.41 77.824 112.587 78.02 112.942 78.02C113.241 78.02 113.53 77.8613 113.81 77.544C114.109 77.2267 114.407 76.648 114.706 75.808L115.21 74.464H115.742ZM117.297 74.772C117.297 73.2413 117.642 71.6453 118.333 69.984C119.042 68.3227 120.078 66.932 121.441 65.812C122.822 64.692 124.465 64.132 126.369 64.132C127.825 64.132 128.945 64.5333 129.729 65.336C130.513 66.12 130.905 67.2587 130.905 68.752C130.905 70.2827 130.55 71.8787 129.841 73.54C129.15 75.2013 128.114 76.592 126.733 77.712C125.37 78.832 123.737 79.392 121.833 79.392C120.377 79.392 119.257 79 118.473 78.216C117.689 77.4133 117.297 76.2653 117.297 74.772ZM126.229 64.692C125.538 64.692 124.782 65.3547 123.961 66.68C123.14 68.0053 122.449 69.6293 121.889 71.552C121.329 73.4747 121.049 75.2667 121.049 76.928C121.049 77.6 121.124 78.0853 121.273 78.384C121.422 78.6827 121.665 78.832 122.001 78.832C122.692 78.832 123.438 78.188 124.241 76.9C125.062 75.612 125.753 74.016 126.313 72.112C126.873 70.1893 127.153 68.3693 127.153 66.652C127.153 65.924 127.078 65.42 126.929 65.14C126.78 64.8413 126.546 64.692 126.229 64.692Z" fill="black"/>
<defs>
<linearGradient id="paint0_linear" x1="142.5" y1="22.5" x2="2.55973e-06" y2="144.5" gradientUnits="userSpaceOnUse">
<stop stop-color="#107A8B"/>
<stop offset="1" stop-color="#2A94F4" stop-opacity="0.52"/>
</linearGradient>
</defs>
</svg>
