<svg width="60" height="67" viewBox="0 0 60 67" fill="none" xmlns="http://www.w3.org/2000/svg">
<path d="M10.0425 51.7315C10.4317 52.1255 10.73 52.6013 10.916 53.1249C11.1021 53.6485 11.1713 54.2071 11.1187 54.7607C10.8552 57.3233 10.3555 59.8554 9.62625 62.3245C14.8575 61.1029 18.0525 59.6885 19.5037 58.9473C20.3269 58.5268 21.2748 58.4272 22.1662 58.6674C24.7216 59.3545 27.3554 59.7003 30 59.6961C44.985 59.6961 56.25 49.0804 56.25 37.0049C56.25 24.9331 44.985 14.3136 30 14.3136C15.015 14.3136 3.75 24.9331 3.75 37.0049C3.75 42.5566 6.06375 47.7076 10.0425 51.7315ZM8.19375 66.4997C7.30526 66.6773 6.41388 66.84 5.52 66.9875C4.77 67.1086 4.2 66.3219 4.49625 65.6185C4.82922 64.8266 5.13441 64.0231 5.41125 63.2094L5.4225 63.1716C6.3525 60.4487 7.11 57.3173 7.3875 54.4015C2.78625 49.7498 0 43.6609 0 37.0049C0 22.3841 13.4325 10.5317 30 10.5317C46.5675 10.5317 60 22.3841 60 37.0049C60 51.6256 46.5675 63.478 30 63.478C27.0287 63.482 24.0697 63.0929 21.1987 62.3207C19.2487 63.3153 15.0525 65.1269 8.19375 66.4997Z" fill="url(#paint0_linear)"/>
<path d="M57.9661 20.7986C57.9661 22.1601 57.4304 23.4658 56.4768 24.4285C55.5233 25.3913 54.2299 25.9321 52.8814 25.9321C51.5328 25.9321 50.2395 25.3913 49.2859 24.4285C48.3323 23.4658 47.7966 22.1601 47.7966 20.7986C47.7966 19.4372 48.3323 18.1314 49.2859 17.1687C50.2395 16.206 51.5328 15.6652 52.8814 15.6652C54.2299 15.6652 55.5233 16.206 56.4768 17.1687C57.4304 18.1314 57.9661 19.4372 57.9661 20.7986Z" fill="#FFD400"/>
<defs>
<linearGradient id="paint0_linear" x1="58.5616" y1="19.8569" x2="-0.418716" y2="69.9268" gradientUnits="userSpaceOnUse">
<stop stop-color="#107A8B"/>
<stop offset="1" stop-color="#2A94F4" stop-opacity="0.52"/>
</linearGradient>
</defs>
</svg>
