<svg width="187" height="187" viewBox="0 0 187 187" fill="none" xmlns="http://www.w3.org/2000/svg">
<path d="M93.5001 15.5834C136.533 15.5834 171.417 50.4667 171.417 93.5C171.417 136.533 136.533 171.417 93.5001 171.417C80.7044 171.437 68.1025 168.292 56.8169 162.262L15.5834 171.417L24.7464 130.199C18.7138 118.908 15.5661 106.301 15.5834 93.5C15.5834 50.4667 50.4667 15.5834 93.5001 15.5834ZM93.5001 31.1667C82.7338 31.1642 72.1504 33.9503 62.781 39.2536C53.4115 44.5569 45.5753 52.1966 40.0359 61.4285C34.4965 70.6603 31.4426 81.1696 31.1719 91.9324C30.9011 102.695 33.4227 113.345 38.4909 122.843L41.218 127.939L36.1066 150.893L59.0765 145.798L64.1644 148.517C73.1886 153.341 83.2673 155.855 93.5001 155.833C110.032 155.833 125.887 149.266 137.576 137.576C149.266 125.887 155.833 110.032 155.833 93.5C155.833 76.9682 149.266 61.1135 137.576 49.4237C125.887 37.734 110.032 31.1667 93.5001 31.1667V31.1667ZM93.5001 54.5417C99.6995 54.5417 105.645 57.0044 110.029 61.3881C114.412 65.7718 116.875 71.7173 116.875 77.9167V85.7084H124.667V124.667H62.3334V85.7084H70.1251V77.9167C70.1251 71.7173 72.5878 65.7718 76.9714 61.3881C81.3551 57.0044 87.3006 54.5417 93.5001 54.5417V54.5417ZM109.083 101.292H77.9167V109.083H109.083V101.292ZM93.5001 70.125C89.1991 70.125 85.7084 73.6313 85.7084 77.9167V85.7084H101.292V77.9167C101.292 75.8502 100.471 73.8684 99.0096 72.4072C97.5484 70.946 95.5665 70.125 93.5001 70.125Z" fill="#FFBE0F"/>
</svg>
