<svg width="187" height="187" viewBox="0 0 187 187" fill="none" xmlns="http://www.w3.org/2000/svg">
<path d="M93.5 38.9584C86.2673 38.9584 79.3309 41.8315 74.2166 46.9458C69.1023 52.0601 66.2292 58.9965 66.2292 66.2292C66.2292 73.4619 69.1023 80.3983 74.2166 85.5126C79.3309 90.6269 86.2673 93.5 93.5 93.5C100.733 93.5 107.669 90.6269 112.783 85.5126C117.898 80.3983 120.771 73.4619 120.771 66.2292C120.771 58.9965 117.898 52.0601 112.783 46.9458C107.669 41.8315 100.733 38.9584 93.5 38.9584V38.9584ZM93.5 54.5417C96.5997 54.5417 99.5725 55.7731 101.764 57.9649C103.956 60.1567 105.187 63.1295 105.187 66.2292C105.187 69.3289 103.956 72.3017 101.764 74.4935C99.5725 76.6854 96.5997 77.9167 93.5 77.9167C90.4003 77.9167 87.4275 76.6854 85.2357 74.4935C83.0439 72.3017 81.8125 69.3289 81.8125 66.2292C81.8125 63.1295 83.0439 60.1567 85.2357 57.9649C87.4275 55.7731 90.4003 54.5417 93.5 54.5417ZM42.8542 62.3334C37.688 62.3334 32.7334 64.3856 29.0803 68.0387C25.4273 71.6917 23.375 76.6463 23.375 81.8125C23.375 89.1367 27.5046 95.448 33.4262 98.7984C36.2312 100.357 39.4258 101.292 42.8542 101.292C46.2825 101.292 49.4771 100.357 52.2821 98.7984C55.165 97.1621 57.5804 94.8246 59.3725 92.0196C53.6961 84.622 50.6277 75.5537 50.6458 66.2292V64.0475C48.3083 62.9567 45.6592 62.3334 42.8542 62.3334ZM144.146 62.3334C141.341 62.3334 138.692 62.9567 136.354 64.0475V66.2292C136.354 75.5792 133.315 84.6175 127.627 92.0196C128.562 93.5 129.575 94.6688 130.744 95.8375C134.337 99.3212 139.141 101.276 144.146 101.292C147.574 101.292 150.769 100.357 153.574 98.7984C159.495 95.448 163.625 89.1367 163.625 81.8125C163.625 76.6463 161.573 71.6917 157.92 68.0387C154.267 64.3856 149.312 62.3334 144.146 62.3334V62.3334ZM93.5 109.083C75.2675 109.083 38.9583 118.2 38.9583 136.354V148.042H148.042V136.354C148.042 118.2 111.732 109.083 93.5 109.083ZM36.6987 113.369C21.6608 115.161 0 122.797 0 136.354V148.042H23.375V133.004C23.375 125.134 28.7512 118.589 36.6987 113.369ZM150.301 113.369C158.249 118.589 163.625 125.134 163.625 133.004V148.042H187V136.354C187 122.797 165.339 115.161 150.301 113.369ZM93.5 124.667C105.421 124.667 118.745 128.563 126.459 132.458H60.5412C68.255 128.563 81.5787 124.667 93.5 124.667Z" fill="#FFBE0F"/>
</svg>
