<svg width="187" height="187" viewBox="0 0 187 187" fill="none" xmlns="http://www.w3.org/2000/svg">
<path d="M47.4279 60.3853C49.2721 50.0238 54.7039 40.6418 62.7715 33.8833C70.8391 27.1249 81.0278 23.4211 91.5521 23.4211C102.076 23.4211 112.265 27.1249 120.333 33.8833C128.4 40.6418 133.832 50.0238 135.676 60.3853H136.354C140.811 60.385 145.215 61.3404 149.271 63.187C153.327 65.0337 156.94 67.7286 159.865 71.0901C162.791 74.4515 164.962 78.4014 166.232 82.6731C167.501 86.9449 167.84 91.4392 167.225 95.853C163.677 91.6626 159.475 88.0736 154.782 85.2251C153.462 81.3869 150.977 78.0564 147.674 75.6985C144.37 73.3406 140.413 72.0731 136.354 72.0728H130.464C128.963 72.0746 127.518 71.4987 126.43 70.4644C125.342 69.43 124.694 68.0167 124.62 66.5173C124.188 58.0374 120.515 50.0473 114.361 44.1979C108.206 38.3485 100.039 35.0869 91.5482 35.0869C83.0573 35.0869 74.8907 38.3485 68.7359 44.1979C62.5811 50.0473 58.9083 58.0374 58.4765 66.5173C58.4025 68.0153 57.7554 69.4276 56.6691 70.4617C55.5827 71.4958 54.1404 72.0726 52.6405 72.0728H46.75C41.5838 72.0728 36.6292 74.1251 32.9762 77.7781C29.3231 81.4312 27.2709 86.3858 27.2709 91.552C27.2709 96.7182 29.3231 101.673 32.9762 105.326C36.6292 108.979 41.5838 111.031 46.75 111.031H81.0334C79.6427 114.802 78.7089 118.726 78.2518 122.719H46.75C38.4841 122.719 30.5568 119.435 24.7119 113.59C18.867 107.745 15.5834 99.8179 15.5834 91.552C15.5834 83.2861 18.867 75.3587 24.7119 69.5138C30.5568 63.6689 38.4841 60.3853 46.75 60.3853H47.4279ZM85.7084 128.562C85.7084 139.928 90.2234 150.828 98.2601 158.865C106.297 166.902 117.197 171.417 128.563 171.417C139.928 171.417 150.828 166.902 158.865 158.865C166.902 150.828 171.417 139.928 171.417 128.562C171.417 117.197 166.902 106.297 158.865 98.2599C150.828 90.2232 139.928 85.7082 128.563 85.7082C117.197 85.7082 106.297 90.2232 98.2601 98.2599C90.2234 106.297 85.7084 117.197 85.7084 128.562ZM151.938 101.292C152.971 101.292 153.962 101.702 154.692 102.433C155.423 103.163 155.833 104.154 155.833 105.187V120.771C155.833 121.804 155.423 122.795 154.692 123.525C153.962 124.256 152.971 124.667 151.938 124.667H136.354C135.321 124.667 134.33 124.256 133.599 123.525C132.869 122.795 132.458 121.804 132.458 120.771C132.458 119.737 132.869 118.747 133.599 118.016C134.33 117.285 135.321 116.875 136.354 116.875H144.146C142.333 114.454 139.981 112.489 137.276 111.136C134.57 109.784 131.587 109.081 128.563 109.083C122.072 109.083 116.314 112.254 112.769 117.155C112.154 117.967 111.245 118.505 110.238 118.655C109.232 118.805 108.206 118.555 107.381 117.958C106.556 117.361 105.998 116.465 105.825 115.462C105.652 114.459 105.88 113.428 106.458 112.589C108.984 109.09 112.305 106.24 116.148 104.276C119.991 102.312 124.246 101.289 128.563 101.292C136.198 101.292 143.094 104.432 148.042 109.473V105.187C148.042 104.154 148.452 103.163 149.183 102.433C149.913 101.702 150.904 101.292 151.938 101.292ZM109.083 147.652V151.937C109.083 152.971 108.673 153.962 107.942 154.692C107.212 155.423 106.221 155.833 105.188 155.833C104.154 155.833 103.163 155.423 102.433 154.692C101.702 153.962 101.292 152.971 101.292 151.937V136.354C101.292 135.321 101.702 134.33 102.433 133.599C103.163 132.869 104.154 132.458 105.188 132.458H120.771C121.804 132.458 122.795 132.869 123.526 133.599C124.256 134.33 124.667 135.321 124.667 136.354C124.667 137.387 124.256 138.378 123.526 139.109C122.795 139.839 121.804 140.25 120.771 140.25H112.979C116.532 144.987 122.197 148.042 128.563 148.042C134.531 148.042 139.876 145.361 143.452 141.123C144.125 140.353 145.072 139.878 146.091 139.8C147.11 139.723 148.119 140.049 148.9 140.708C149.681 141.368 150.171 142.307 150.266 143.325C150.361 144.342 150.051 145.356 149.405 146.148C146.848 149.185 143.657 151.626 140.056 153.299C136.456 154.972 132.533 155.837 128.563 155.833C124.934 155.838 121.341 155.117 117.996 153.712C114.651 152.307 111.62 150.246 109.083 147.652V147.652Z" fill="#FFBE0F"/>
</svg>
